<?xml version="1.0" encoding="UTF-8" standalone="no"?>
<svg
   xmlns:dc="http://purl.org/dc/elements/1.1/"
   xmlns:cc="http://creativecommons.org/ns#"
   xmlns:rdf="http://www.w3.org/1999/02/22-rdf-syntax-ns#"
   xmlns:svg="http://www.w3.org/2000/svg"
   xmlns="http://www.w3.org/2000/svg"
   xmlns:xlink="http://www.w3.org/1999/xlink"
   xmlns:sodipodi="http://sodipodi.sourceforge.net/DTD/sodipodi-0.dtd"
   xmlns:inkscape="http://www.inkscape.org/namespaces/inkscape"
   sodipodi:docname="rushhour.svg"
   inkscape:version="1.0 (4035a4fb49, 2020-05-01)"
   id="svg8"
   version="1.1"
   viewBox="0 0 210 297"
   height="297mm"
   width="210mm">
  <defs
     id="defs2" />
  <sodipodi:namedview
     inkscape:window-maximized="1"
     inkscape:window-y="-8"
     inkscape:window-x="1912"
     inkscape:window-height="1017"
     inkscape:window-width="1920"
     showgrid="true"
     inkscape:document-rotation="0"
     inkscape:current-layer="layer1"
     inkscape:document-units="mm"
     inkscape:cy="292.94946"
     inkscape:cx="376.53604"
     inkscape:zoom="1.3629885"
     inkscape:pageshadow="2"
     inkscape:pageopacity="0.0"
     borderopacity="1.0"
     bordercolor="#666666"
     pagecolor="#ffffff"
     id="base">
    <inkscape:grid
       id="grid833"
       type="xygrid" />
  </sodipodi:namedview>
  <metadata
     id="metadata5">
    <rdf:RDF>
      <cc:Work
         rdf:about="">
        <dc:format>image/svg+xml</dc:format>
        <dc:type
           rdf:resource="http://purl.org/dc/dcmitype/StillImage" />
        <dc:title></dc:title>
      </cc:Work>
    </rdf:RDF>
  </metadata>
  <g
     id="layer1"
     inkscape:groupmode="layer"
     inkscape:label="Calque 1">
    <rect
       y="22.748169"
       x="20.777012"
       height="121.74451"
       width="121.74451"
       id="rect835"
       style="font-variation-settings:'wdth' 100, 'wght' 400;fill:none;fill-rule:evenodd;stroke:#0000ff;stroke-width:0.255489;stroke-miterlimit:4;stroke-dasharray:none;stroke-opacity:1;paint-order:fill markers stroke" />
    <g
       transform="translate(-15.14136,-23.87676)"
       id="g1239">
      <rect
         style="font-variation-settings:'wdth' 100, 'wght' 400;fill:none;fill-rule:evenodd;stroke:#0000ff;stroke-width:0.246371;stroke-miterlimit:4;stroke-dasharray:none;stroke-opacity:1;paint-order:fill markers stroke"
         id="rect837"
         width="14.753629"
         height="14.753629"
         x="39.430065"
         y="50.13662" />
      <use
         height="100%"
         width="100%"
         x="0"
         y="0"
         xlink:href="#rect837"
         id="use911"
         inkscape:tile-cx="46.806878"
         inkscape:tile-cy="57.513433"
         inkscape:tile-w="14.999999"
         inkscape:tile-h="14.999999"
         inkscape:tile-x0="39.306879"
         inkscape:tile-y0="50.013433" />
      <use
         height="100%"
         width="100%"
         x="0"
         y="0"
         inkscape:tiled-clone-of="#use911"
         xlink:href="#use911"
         id="use1129" />
      <use
         height="100%"
         width="100%"
         x="0"
         y="0"
         inkscape:tiled-clone-of="#use911"
         xlink:href="#use911"
         transform="translate(0,19.993499)"
         id="use1131" />
      <use
         height="100%"
         width="100%"
         x="0"
         y="0"
         inkscape:tiled-clone-of="#use911"
         xlink:href="#use911"
         transform="translate(0,39.986998)"
         id="use1133" />
      <use
         height="100%"
         width="100%"
         x="0"
         y="0"
         inkscape:tiled-clone-of="#use911"
         xlink:href="#use911"
         transform="translate(0,59.980498)"
         id="use1135" />
      <use
         height="100%"
         width="100%"
         x="0"
         y="0"
         inkscape:tiled-clone-of="#use911"
         xlink:href="#use911"
         transform="translate(0,79.973997)"
         id="use1137" />
      <use
         height="100%"
         width="100%"
         x="0"
         y="0"
         inkscape:tiled-clone-of="#use911"
         xlink:href="#use911"
         transform="translate(0,99.967496)"
         id="use1139" />
      <use
         height="100%"
         width="100%"
         x="0"
         y="0"
         inkscape:tiled-clone-of="#use911"
         xlink:href="#use911"
         transform="matrix(-1,0,0,1,113.60726,0)"
         id="use1141" />
      <use
         height="100%"
         width="100%"
         x="0"
         y="0"
         inkscape:tiled-clone-of="#use911"
         xlink:href="#use911"
         transform="matrix(-1,0,0,1,113.60726,19.993499)"
         id="use1143" />
      <use
         height="100%"
         width="100%"
         x="0"
         y="0"
         inkscape:tiled-clone-of="#use911"
         xlink:href="#use911"
         transform="matrix(-1,0,0,1,113.60726,39.986998)"
         id="use1145" />
      <use
         height="100%"
         width="100%"
         x="0"
         y="0"
         inkscape:tiled-clone-of="#use911"
         xlink:href="#use911"
         transform="matrix(-1,0,0,1,113.60726,59.980498)"
         id="use1147" />
      <use
         height="100%"
         width="100%"
         x="0"
         y="0"
         inkscape:tiled-clone-of="#use911"
         xlink:href="#use911"
         transform="matrix(-1,0,0,1,113.60726,79.973997)"
         id="use1149" />
      <use
         height="100%"
         width="100%"
         x="0"
         y="0"
         inkscape:tiled-clone-of="#use911"
         xlink:href="#use911"
         transform="matrix(-1,0,0,1,113.60726,99.967496)"
         id="use1151" />
      <use
         height="100%"
         width="100%"
         x="0"
         y="0"
         inkscape:tiled-clone-of="#use911"
         xlink:href="#use911"
         transform="translate(39.986998)"
         id="use1153" />
      <use
         height="100%"
         width="100%"
         x="0"
         y="0"
         inkscape:tiled-clone-of="#use911"
         xlink:href="#use911"
         transform="translate(39.986998,19.993499)"
         id="use1155" />
      <use
         height="100%"
         width="100%"
         x="0"
         y="0"
         inkscape:tiled-clone-of="#use911"
         xlink:href="#use911"
         transform="translate(39.986998,39.986998)"
         id="use1157" />
      <use
         height="100%"
         width="100%"
         x="0"
         y="0"
         inkscape:tiled-clone-of="#use911"
         xlink:href="#use911"
         transform="translate(39.986998,59.980498)"
         id="use1159" />
      <use
         height="100%"
         width="100%"
         x="0"
         y="0"
         inkscape:tiled-clone-of="#use911"
         xlink:href="#use911"
         transform="translate(39.986998,79.973997)"
         id="use1161" />
      <use
         height="100%"
         width="100%"
         x="0"
         y="0"
         inkscape:tiled-clone-of="#use911"
         xlink:href="#use911"
         transform="translate(39.986998,99.967496)"
         id="use1163" />
      <use
         height="100%"
         width="100%"
         x="0"
         y="0"
         inkscape:tiled-clone-of="#use911"
         xlink:href="#use911"
         transform="matrix(-1,0,0,1,153.59425,0)"
         id="use1165" />
      <use
         height="100%"
         width="100%"
         x="0"
         y="0"
         inkscape:tiled-clone-of="#use911"
         xlink:href="#use911"
         transform="matrix(-1,0,0,1,153.59425,19.993499)"
         id="use1167" />
      <use
         height="100%"
         width="100%"
         x="0"
         y="0"
         inkscape:tiled-clone-of="#use911"
         xlink:href="#use911"
         transform="matrix(-1,0,0,1,153.59425,39.986998)"
         id="use1169" />
      <use
         height="100%"
         width="100%"
         x="0"
         y="0"
         inkscape:tiled-clone-of="#use911"
         xlink:href="#use911"
         transform="matrix(-1,0,0,1,153.59425,59.980498)"
         id="use1171" />
      <use
         height="100%"
         width="100%"
         x="0"
         y="0"
         inkscape:tiled-clone-of="#use911"
         xlink:href="#use911"
         transform="matrix(-1,0,0,1,153.59425,79.973997)"
         id="use1173" />
      <use
         height="100%"
         width="100%"
         x="0"
         y="0"
         inkscape:tiled-clone-of="#use911"
         xlink:href="#use911"
         transform="matrix(-1,0,0,1,153.59425,99.967496)"
         id="use1175" />
      <use
         height="100%"
         width="100%"
         x="0"
         y="0"
         inkscape:tiled-clone-of="#use911"
         xlink:href="#use911"
         transform="translate(79.973997)"
         id="use1177" />
      <use
         height="100%"
         width="100%"
         x="0"
         y="0"
         inkscape:tiled-clone-of="#use911"
         xlink:href="#use911"
         transform="translate(79.973997,19.993499)"
         id="use1179" />
      <use
         height="100%"
         width="100%"
         x="0"
         y="0"
         inkscape:tiled-clone-of="#use911"
         xlink:href="#use911"
         transform="translate(79.973997,39.986998)"
         id="use1181" />
      <use
         height="100%"
         width="100%"
         x="0"
         y="0"
         inkscape:tiled-clone-of="#use911"
         xlink:href="#use911"
         transform="translate(79.973997,59.980498)"
         id="use1183" />
      <use
         height="100%"
         width="100%"
         x="0"
         y="0"
         inkscape:tiled-clone-of="#use911"
         xlink:href="#use911"
         transform="translate(79.973997,79.973997)"
         id="use1185" />
      <use
         height="100%"
         width="100%"
         x="0"
         y="0"
         inkscape:tiled-clone-of="#use911"
         xlink:href="#use911"
         transform="translate(79.973997,99.967496)"
         id="use1187" />
      <use
         height="100%"
         width="100%"
         x="0"
         y="0"
         inkscape:tiled-clone-of="#use911"
         xlink:href="#use911"
         transform="matrix(-1,0,0,1,193.58125,0)"
         id="use1189" />
      <use
         height="100%"
         width="100%"
         x="0"
         y="0"
         inkscape:tiled-clone-of="#use911"
         xlink:href="#use911"
         transform="matrix(-1,0,0,1,193.58125,19.993499)"
         id="use1191" />
      <use
         height="100%"
         width="100%"
         x="0"
         y="0"
         inkscape:tiled-clone-of="#use911"
         xlink:href="#use911"
         transform="matrix(-1,0,0,1,193.58125,39.986998)"
         id="use1193" />
      <use
         height="100%"
         width="100%"
         x="0"
         y="0"
         inkscape:tiled-clone-of="#use911"
         xlink:href="#use911"
         transform="matrix(-1,0,0,1,193.58125,59.980498)"
         id="use1195" />
      <use
         height="100%"
         width="100%"
         x="0"
         y="0"
         inkscape:tiled-clone-of="#use911"
         xlink:href="#use911"
         transform="matrix(-1,0,0,1,193.58125,79.973997)"
         id="use1197" />
      <use
         height="100%"
         width="100%"
         x="0"
         y="0"
         inkscape:tiled-clone-of="#use911"
         xlink:href="#use911"
         transform="matrix(-1,0,0,1,193.58125,99.967496)"
         id="use1199" />
    </g>
  </g>
</svg>
